<?xml version="1.0" ?><svg enable-background="new 0 0 64 64" id="Layer_1" version="1.1" viewBox="0 0 64 64" xml:space="preserve" xmlns="http://www.w3.org/2000/svg" xmlns:xlink="http://www.w3.org/1999/xlink"><g><path d="M44.211,12.667c-10.66,0-19.333,8.673-19.333,19.333s8.673,19.333,19.333,19.333S63.545,42.66,63.545,32   S54.872,12.667,44.211,12.667z M40.714,40.371c-0.469-0.088-0.902-0.201-1.301-0.34c-0.501-0.175-0.841-0.645-0.841-1.176v-1.653   c0-0.497,0.542-0.804,0.968-0.548c0.392,0.234,0.8,0.428,1.224,0.58c0.789,0.282,1.586,0.423,2.391,0.423   c0.054,0,0.106,0,0.159-0.002c0.405-0.008,0.764-0.05,1.077-0.125c0.274-0.066,0.513-0.152,0.716-0.259   c0.058-0.03,0.113-0.062,0.165-0.095c0.236-0.151,0.412-0.329,0.528-0.534c0.116-0.205,0.175-0.428,0.175-0.667   c0-0.325-0.093-0.614-0.279-0.87c-0.151-0.208-0.347-0.403-0.589-0.585c-0.055-0.043-0.112-0.083-0.171-0.123   c-0.321-0.216-0.702-0.425-1.143-0.626c-0.156-0.071-0.316-0.142-0.479-0.215c-0.301-0.131-0.618-0.265-0.948-0.401   c-1.299-0.541-2.269-1.202-2.907-1.983c-0.638-0.781-0.957-1.725-0.957-2.83c0-0.866,0.175-1.611,0.523-2.234   c0.348-0.622,0.821-1.135,1.42-1.537c0.6-0.402,1.294-0.698,2.083-0.888c0.257-0.062,0.519-0.113,0.786-0.154v-1.247h1.793v1.117   c0.837,0.003,1.58,0.056,2.231,0.157c0.312,0.049,0.614,0.11,0.905,0.184c0.554,0.14,0.945,0.636,0.945,1.207v1.459   c0,0.469-0.483,0.782-0.911,0.59c-0.329-0.147-0.667-0.269-1.015-0.365c-0.348-0.096-0.694-0.168-1.039-0.215   c-0.344-0.046-0.67-0.069-0.979-0.069c-0.046,0-0.092,0-0.137,0.002c-0.373,0.007-0.714,0.047-1.024,0.12   c-0.295,0.068-0.552,0.161-0.769,0.279c-0.039,0.02-0.076,0.041-0.113,0.064c-0.239,0.147-0.425,0.322-0.556,0.527   c-0.132,0.205-0.198,0.435-0.198,0.691c0,0.279,0.074,0.527,0.22,0.748c0.148,0.22,0.356,0.43,0.627,0.627   c0.007,0.004,0.013,0.01,0.02,0.015c0.266,0.191,0.589,0.381,0.966,0.565c0.254,0.125,0.529,0.252,0.827,0.382   c0.156,0.067,0.317,0.135,0.484,0.205c0.666,0.279,1.264,0.574,1.793,0.888c0.529,0.313,0.984,0.667,1.363,1.061   c0.378,0.395,0.668,0.845,0.87,1.352c0.201,0.507,0.302,1.096,0.302,1.769c0,0.928-0.176,1.707-0.528,2.337   c-0.351,0.63-0.829,1.142-1.433,1.531c-0.603,0.391-1.305,0.672-2.105,0.842c-0.244,0.051-0.492,0.096-0.745,0.131v1.241h-1.793   v-1.117C42.403,40.602,41.536,40.525,40.714,40.371z M43.992,48.175h-0.637v-2.152h0.637c7.732,0,14.022-6.29,14.022-14.022   c0-7.732-6.29-14.022-14.022-14.022h-0.637v-2.153h0.637c8.919,0,16.175,7.256,16.175,16.175S52.91,48.175,43.992,48.175z"/><path d="M22.756,16.946h4.125c1.435-1.65,3.1-3.093,4.946-4.279h-9.071c-1.182,0-2.14,0.958-2.14,2.14S21.574,16.946,22.756,16.946   z"/><path d="M23.91,21.264H11.82c-1.182,0-2.14,0.958-2.14,2.14c0,1.182,0.958,2.14,2.14,2.14h10.349   C22.607,24.048,23.192,22.616,23.91,21.264z"/><path d="M21.239,32c0-0.722,0.038-1.435,0.103-2.14H2.595c-1.182,0-2.14,0.958-2.14,2.14s0.958,2.14,2.14,2.14h18.747   C21.276,33.435,21.239,32.722,21.239,32z"/><path d="M22.169,38.457H11.629c-1.182,0-2.14,0.958-2.14,2.14c0,1.182,0.958,2.14,2.14,2.14H23.91   C23.192,41.384,22.607,39.952,22.169,38.457z"/><path d="M26.881,47.054h-4.22c-1.182,0-2.14,0.958-2.14,2.14s0.958,2.14,2.14,2.14h9.167   C29.981,50.147,28.316,48.704,26.881,47.054z"/></g></svg>